<svg width="260" height="860" viewBox="0 0 260 860" xmlns="http://www.w3.org/2000/svg" role="img" aria-label="Line array speaker stack">
  <defs>
    <linearGradient id="cabinet" x1="0" y1="0" x2="0" y2="1">
      <stop offset="0" stop-color="#202a39"/>
      <stop offset="0.46" stop-color="#131a24"/>
      <stop offset="1" stop-color="#090d14"/>
    </linearGradient>
    <linearGradient id="grill" x1="0" y1="0" x2="1" y2="0">
      <stop offset="0" stop-color="#0b1119"/>
      <stop offset="1" stop-color="#151f2d"/>
    </linearGradient>
  </defs>

  <rect x="94" y="8" width="30" height="18" rx="4" fill="#36465f" stroke="#8aa0c8" stroke-opacity="0.5"/>

  <g stroke="#95abd2" stroke-opacity="0.38">
    <line x1="108" y1="18" x2="70" y2="72" />
    <line x1="110" y1="18" x2="82" y2="72" />
    <line x1="112" y1="18" x2="94" y2="72" />
    <line x1="114" y1="18" x2="106" y2="72" />
  </g>

  <g transform="translate(0,60)">
    <g transform="translate(0,0)">
      <rect x="58" y="0" width="132" height="74" rx="8" fill="url(#cabinet)" stroke="#4b5d79" stroke-opacity="0.7"/>
      <rect x="70" y="14" width="108" height="46" rx="5" fill="url(#grill)"/>
      <circle cx="96" cy="37" r="11" fill="#1f2b3d" stroke="#6982ab" stroke-opacity="0.4"/>
      <circle cx="151" cy="37" r="11" fill="#1f2b3d" stroke="#6982ab" stroke-opacity="0.4"/>
    </g>
    <g transform="translate(6,84)">
      <rect x="58" y="0" width="132" height="74" rx="8" fill="url(#cabinet)" stroke="#4b5d79" stroke-opacity="0.7"/>
      <rect x="70" y="14" width="108" height="46" rx="5" fill="url(#grill)"/>
      <circle cx="96" cy="37" r="11" fill="#1f2b3d" stroke="#6982ab" stroke-opacity="0.4"/>
      <circle cx="151" cy="37" r="11" fill="#1f2b3d" stroke="#6982ab" stroke-opacity="0.4"/>
    </g>
    <g transform="translate(12,168)">
      <rect x="58" y="0" width="132" height="74" rx="8" fill="url(#cabinet)" stroke="#4b5d79" stroke-opacity="0.7"/>
      <rect x="70" y="14" width="108" height="46" rx="5" fill="url(#grill)"/>
      <circle cx="96" cy="37" r="11" fill="#1f2b3d" stroke="#6982ab" stroke-opacity="0.4"/>
      <circle cx="151" cy="37" r="11" fill="#1f2b3d" stroke="#6982ab" stroke-opacity="0.4"/>
    </g>
    <g transform="translate(18,252)">
      <rect x="58" y="0" width="132" height="74" rx="8" fill="url(#cabinet)" stroke="#4b5d79" stroke-opacity="0.7"/>
      <rect x="70" y="14" width="108" height="46" rx="5" fill="url(#grill)"/>
      <circle cx="96" cy="37" r="11" fill="#1f2b3d" stroke="#6982ab" stroke-opacity="0.4"/>
      <circle cx="151" cy="37" r="11" fill="#1f2b3d" stroke="#6982ab" stroke-opacity="0.4"/>
    </g>
    <g transform="translate(24,336)">
      <rect x="58" y="0" width="132" height="74" rx="8" fill="url(#cabinet)" stroke="#4b5d79" stroke-opacity="0.7"/>
      <rect x="70" y="14" width="108" height="46" rx="5" fill="url(#grill)"/>
      <circle cx="96" cy="37" r="11" fill="#1f2b3d" stroke="#6982ab" stroke-opacity="0.4"/>
      <circle cx="151" cy="37" r="11" fill="#1f2b3d" stroke="#6982ab" stroke-opacity="0.4"/>
    </g>
    <g transform="translate(30,420)">
      <rect x="58" y="0" width="132" height="74" rx="8" fill="url(#cabinet)" stroke="#4b5d79" stroke-opacity="0.7"/>
      <rect x="70" y="14" width="108" height="46" rx="5" fill="url(#grill)"/>
      <circle cx="96" cy="37" r="11" fill="#1f2b3d" stroke="#6982ab" stroke-opacity="0.4"/>
      <circle cx="151" cy="37" r="11" fill="#1f2b3d" stroke="#6982ab" stroke-opacity="0.4"/>
    </g>
    <g transform="translate(36,504)">
      <rect x="58" y="0" width="132" height="74" rx="8" fill="url(#cabinet)" stroke="#4b5d79" stroke-opacity="0.7"/>
      <rect x="70" y="14" width="108" height="46" rx="5" fill="url(#grill)"/>
      <circle cx="96" cy="37" r="11" fill="#1f2b3d" stroke="#6982ab" stroke-opacity="0.4"/>
      <circle cx="151" cy="37" r="11" fill="#1f2b3d" stroke="#6982ab" stroke-opacity="0.4"/>
    </g>
    <g transform="translate(42,588)">
      <rect x="58" y="0" width="132" height="74" rx="8" fill="url(#cabinet)" stroke="#4b5d79" stroke-opacity="0.7"/>
      <rect x="70" y="14" width="108" height="46" rx="5" fill="url(#grill)"/>
      <circle cx="96" cy="37" r="11" fill="#1f2b3d" stroke="#6982ab" stroke-opacity="0.4"/>
      <circle cx="151" cy="37" r="11" fill="#1f2b3d" stroke="#6982ab" stroke-opacity="0.4"/>
    </g>
  </g>
</svg>
